# xmcd CD database file
#
# Track frame offsets:
#	187
#	30265
#	53217
#	83465
#	93217
#	120445
#
# Disc length: 2388 seconds
#
# Revision: 2
# Processed by: cddbd v1.5.1PL0 Copyright (c) Steve Scherf et al.
# Submitted via: CDex 1.51
#
DISCID=33095206
DTITLE=Sebastian Hardie - Four Moments
DYEAR=1975
DGENRE=Progressive Rock
TTITLE0=Four Moments: 1). Glories Shall Be Released
TTITLE1=Four Moments: 2). Dawn Of Our Sun
TTITLE2=Four Moments: 3). Journey Through Our Dreams
TTITLE3=Four Moments: 4). Everything Is Real
TTITLE4=Rosanna
TTITLE5=Openings
EXTD=\n YEAR: 1975
EXTT0=
EXTT1=
EXTT2=
EXTT3=
EXTT4=
EXTT5=
PLAYORDER=
